<svg xmlns="http://www.w3.org/2000/svg" width="111.148" height="111.105"><defs><linearGradient id="a" x1="-7.219" x2="-7.029" y1="4.905" y2="3.833" gradientUnits="objectBoundingBox"><stop offset="0" stop-color="#faae42"/><stop offset="1" stop-color="#ef3e31"/></linearGradient></defs><path fill="url(#a)" d="M24.913 0h61.541a25.943 25.943 0 0 1 8.723 1.476 24.644 24.644 0 0 1 15.885 19.357 29.933 29.933 0 0 1 .3 4.817v60.022a28.113 28.113 0 0 1-.477 5.729 24.689 24.689 0 0 1-16.705 18.575 26.091 26.091 0 0 1-7.769 1.128c-1.172 0-61.672 0-62.583-.043a24.765 24.765 0 0 1-12.5-4.123 25.083 25.083 0 0 1-8.463-9.722A24.491 24.491 0 0 1 .392 86.41V24.695a23.038 23.038 0 0 1 2.3-10.633A24.643 24.643 0 0 1 11.068 4.3 24.31 24.31 0 0 1 23.524.087 7.238 7.238 0 0 1 24.913 0Z" data-name="Path 286" transform="translate(-.218)"/><path fill="#ef3e31" d="M93.745 90.88a16.954 16.954 0 0 0-1.3-1.779 18.434 18.434 0 0 0-3.732-3.385 11.426 11.426 0 0 0-5.859-2 10.608 10.608 0 0 0-4.34.694 28.285 28.285 0 0 0-4.036 1.866c-1.519.781-3.038 1.562-4.644 2.213a34.9 34.9 0 0 1-5.946 1.823 38.649 38.649 0 0 1-7.725.608 52.21 52.21 0 0 1-13.718-2.08 51.879 51.879 0 0 1-11.154-4.817 57.511 57.511 0 0 1-8.636-6.123 63.114 63.114 0 0 1-6.163-6.119 67.397 67.397 0 0 1-3.732-4.774 20.242 20.242 0 0 1-1.3-2.04L0 52.6V24.608A24.579 24.579 0 0 1 24.565 0h21.917l16.231 16.492C99.343 41.4 87.495 68.876 87.495 68.876s10.416 11.718 6.25 22.004Z" data-name="Path 287"/><path fill="#fff" d="M62.801 16.492c36.63 24.912 24.782 52.384 24.782 52.384s10.416 11.761 6.206 22.047c0 0-4.3-7.2-11.5-7.2-6.944 0-11.024 7.2-25 7.2-31.118 0-45.831-26-45.831-26 28.037 18.445 47.176 5.382 47.176 5.382-12.629-7.335-39.494-42.4-39.494-42.4 23.393 19.922 33.505 25.173 33.505 25.173-6.033-4.986-22.959-29.386-22.959-29.386C43.227 37.411 70.135 56.55 70.135 56.55c7.639-21.179-7.334-40.058-7.334-40.058Z" data-name="Path 288"/></svg>