<?xml version="1.0" encoding="UTF-8" standalone="no" ?>
<!DOCTYPE svg PUBLIC "-//W3C//DTD SVG 1.1//EN" "http://www.w3.org/Graphics/SVG/1.1/DTD/svg11.dtd">
<svg xmlns="http://www.w3.org/2000/svg" xmlns:xlink="http://www.w3.org/1999/xlink" version="1.1" width="1080" height="1080" viewBox="0 0 1080 1080" xml:space="preserve">
<desc>Created with Fabric.js 5.2.4</desc>
<defs>
</defs>
<g transform="matrix(1 0 0 1 540 540)" id="da79a0bc-98f1-46b7-9cb6-ea4cabe25747"  >
<rect style="stroke: none; stroke-width: 1; stroke-dasharray: none; stroke-linecap: butt; stroke-dashoffset: 0; stroke-linejoin: miter; stroke-miterlimit: 4; fill: rgb(255,255,255); fill-rule: nonzero; opacity: 1; visibility: hidden;" vector-effect="non-scaling-stroke"  x="-540" y="-540" rx="0" ry="0" width="800px" height="800px" />
</g>
<g transform="matrix(1 0 0 1 540 540)" id="641322c1-1372-463b-84e0-834149786c6a"  >
</g>
<g transform="matrix(8.69 0 0 8.69 544.6 544.6)" id="b7122eda-0f55-4fa8-b89c-618a825b5881"  >
<circle style="stroke: rgb(0,0,0); stroke-width: 0; stroke-dasharray: none; stroke-linecap: butt; stroke-dashoffset: 0; stroke-linejoin: miter; stroke-miterlimit: 4; fill: rgb(255,255,255); fill-rule: nonzero; opacity: 1;" vector-effect="non-scaling-stroke"  cx="0" cy="0" r="35" />
</g>
<g transform="matrix(1 0 0 1 540 540)"  >
<g style="" vector-effect="non-scaling-stroke"   >
		<g transform="matrix(1.56 0 0 1.56 0.13 74.16)"  >
<path style="stroke: none; stroke-width: 1; stroke-dasharray: none; stroke-linecap: butt; stroke-dashoffset: 0; stroke-linejoin: miter; stroke-miterlimit: 4; fill: rgb(238,95,56); fill-rule: nonzero; opacity: 1;" vector-effect="non-scaling-stroke"  transform=" translate(-113.08, -448.46)" d="M 177.1 398.4 C 168.5 396.9 159.5 397.09999999999997 150.7 397.59999999999997 C 130.7 398.7 110.69999999999999 400.59999999999997 90.69999999999999 398.79999999999995 C 81.19999999999999 397.9 71.6 396.99999999999994 61.999999999999986 397.19999999999993 C 44.59999999999999 397.49999999999994 29.999999999999986 403.19999999999993 21.399999999999984 419.79999999999995 C 17.099999999999984 427.99999999999994 16.099999999999984 436.79999999999995 16.399999999999984 445.9 C 17.099999999999984 471.5 28.199999999999985 486.09999999999997 52.59999999999999 493.4 C 72.19999999999999 499.2 92.29999999999998 500 112.49999999999999 499.59999999999997 C 119.99999999999999 499.59999999999997 127.49999999999999 499.99999999999994 135 499.49999999999994 C 150.5 498.59999999999997 165.7 496.29999999999995 180.4 490.8999999999999 C 195.6 485.2999999999999 204.70000000000002 474.5999999999999 208 459.0999999999999 C 209.3 453.0999999999999 209.9 446.7999999999999 209.8 440.69999999999993 C 209.6 420 195.6 401.5 177.1 398.4 z M 78.7 466.1 C 72.2 473.20000000000005 62.800000000000004 473.3 56.1 466.40000000000003 C 51.2 461.40000000000003 48.4 453.70000000000005 48.4 444.1 C 48.6 437.6 50.5 430.5 56.1 424.8 C 62.800000000000004 417.90000000000003 72.2 418 78.7 425 C 88.5 435.6 88.5 455.5 78.7 466.1 z M 169.6 466.6 C 163.5 472.90000000000003 154.7 473.1 148.2 467.3 C 137 457.1 137 434.40000000000003 148.2 424.1 C 154.6 418.20000000000005 163.39999999999998 418.40000000000003 169.6 424.70000000000005 C 175.29999999999998 430.50000000000006 177.2 437.80000000000007 177.5 445.6 C 177.2 453.5 175.2 460.7 169.6 466.6 z" stroke-linecap="round" />
</g>
		<g transform="matrix(1.56 0 0 1.56 0 0)"  >
<path style="stroke: none; stroke-width: 1; stroke-dasharray: none; stroke-linecap: butt; stroke-dashoffset: 0; stroke-linejoin: miter; stroke-miterlimit: 4; fill: rgb(238,95,56); fill-rule: nonzero; opacity: 1;" vector-effect="non-scaling-stroke"  transform=" translate(-113, -401)" d="M 113 145 C -28.400000000000006 145 -143 259.6 -143 401 C -143 542.4 -28.400000000000006 657 113 657 C 254.4 657 369 542.4 369 401 C 369 259.6 254.4 145 113 145 z M 244.2 423.4 C 242.79999999999998 434.79999999999995 240.39999999999998 446.5 236.29999999999998 457.2 C 224.29999999999998 487.9 200.29999999999998 504.8 168.5 509.9 C 150.3 512.8 131.6 512.9 111.4 514.4 C 93.30000000000001 512.8 73.4 512.6 54.10000000000001 509.2 C 16.70000000000001 502.59999999999997 -8.699999999999989 476.4 -16.099999999999994 438.9 C -19.899999999999995 419.79999999999995 -20.999999999999993 400.59999999999997 -15.099999999999994 381.59999999999997 C -11.999999999999995 371.79999999999995 -6.899999999999995 363.09999999999997 -0.2999999999999936 355.2 C 0.6000000000000064 354.2 1.4000000000000064 352.7 1.3000000000000065 351.4 C 0.2000000000000064 334.2 2.2000000000000064 317.2 7.300000000000006 300.79999999999995 C 11.500000000000007 287.09999999999997 8.400000000000006 287.9 23.60000000000001 291.9 C 41.900000000000006 296.7 57.900000000000006 306.59999999999997 73.60000000000001 316.9 C 75.4 318.09999999999997 78.2 318.59999999999997 80.4 318.2 C 102.60000000000001 314.8 124.7 314.59999999999997 146.9 318.5 C 148.5 318.8 150.6 318.2 152.1 317.3 C 165.6 308.5 179.5 300.6 194.7 295.1 C 200.2 293.1 206 291.8 211.6 290.1 C 214.1 289.40000000000003 215.2 290.3 216.1 292.70000000000005 C 222.9 311.70000000000005 225.7 331.20000000000005 224.7 351.30000000000007 C 224.6 352.4000000000001 225.2 353.9000000000001 225.89999999999998 354.80000000000007 C 243 374.6 247.3 398.2 244.2 423.4 z" stroke-linecap="round" />
</g>
</g>
</g>
<g transform="matrix(NaN NaN NaN NaN 0 0)"  >
<g style=""   >
</g>
</g>
</svg>